<svg width="97" height="106" viewBox="0 0 97 106" fill="none" xmlns="http://www.w3.org/2000/svg">
<path d="M13.7324 4.88247C28.4085 2.72731 50.343 27.5762 58.5566 38.3991C66.8175 35.1765 77.7555 31.7431 86.5087 34.8375C94.35 37.6094 98.0613 46.2588 94.8847 53.9157C91.2089 62.7782 81.9596 68.3579 73.5771 72.0514C73.0403 90.6213 61.9525 104.095 42.9501 105.458C35.5708 105.987 30.1499 105.417 23.3085 102.374C13.8708 98.2527 6.16094 90.0494 2.15423 80.5172C-2.18543 70.1937 -0.331543 57.9085 11.0517 53.3043C16.6705 51.0316 24.1898 51.5692 29.7226 54.0084C36.5905 57.0358 41.5285 63.2044 44.1806 70.1344C44.6707 70.0867 45.1576 70.0073 45.6376 69.8971C54.759 67.8816 49.9658 56.4794 45.2538 52.2946C39.6679 47.333 33.6859 45.6479 26.289 46.2106C24.8475 46.1261 20.2707 47.5437 19.1679 46.7038C11.9593 41.2123 4.29878 28.5208 3.04486 19.9811C1.81184 11.5823 6.53637 5.86501 13.7324 4.88247ZM14.2812 11.5739C9.42182 12.7406 8.92326 16.9074 10.0556 21.0905C11.9621 28.1334 17.0113 35.097 22.0722 40.2262C28.516 38.2752 37.7682 39.677 43.6406 42.8756C49.9106 46.291 54.689 51.9087 56.7753 58.7682C59.4767 67.6491 55.0231 76.4345 45.1435 76.8346C44.5967 79.3843 44.0186 81.2226 42.3281 83.2858C39.1725 87.1374 33.976 88.0024 29.2841 87.0338C23.7445 85.8912 18.4223 81.4613 15.3017 76.8288C17.2422 75.2396 19.1725 73.6382 21.0917 72.0241C23.3305 75.2413 26.3935 78.7388 30.414 79.5846C32.2302 79.9665 34.5364 79.6154 36.0556 78.5309C40.0914 75.6491 38.0648 70.4318 35.6982 67.1725C32.5532 62.8094 27.5124 59.6311 22.1786 58.8092C18.3971 58.226 14.2455 58.7089 11.0917 61.0348C7.82487 63.4448 6.29854 67.5476 6.747 71.5446C7.3532 79.0679 11.8917 86.1245 17.5478 90.9196C24.4404 96.764 32.7422 99.63 41.787 98.7887C48.9634 98.1214 55.1749 95.8045 60.0341 90.1364C63.9382 85.5823 65.8296 79.9183 66.7187 74.0661C66.9903 72.2802 66.8239 69.4638 67.7968 68.0416C68.9792 66.3137 72.7746 64.8624 74.7734 63.737C80.1795 60.6914 89.8297 54.4994 89.2636 47.4547C89.0953 45.5283 88.1607 43.7497 86.6679 42.5192C81.0537 37.8034 70.0546 41.9728 63.9277 43.7858C61.9131 44.3819 59.9198 45.4284 57.8222 45.776C55.3462 46.1863 53.4933 42.87 52.1484 41.1168C50.9973 39.6236 49.823 38.1485 48.6259 36.692C41.5999 28.2254 26.2019 10.7996 14.2812 11.5739Z" fill="#F9F5F2"/>
<path d="M67.6628 0C69.0157 0.412554 72.8904 2.18759 74.4184 2.84411C72.5584 7.22623 70.5665 11.6609 68.7849 16.0619L68.7121 16.1594C68.2812 16.3081 63.2162 14.2183 62.4078 13.9046L67.6628 0Z" fill="#F9F5F2"/>
<path d="M84.8305 15.4048L84.9363 15.4278C85.3706 15.934 87.4864 21.178 87.8616 22.0689C86.9145 22.5408 85.0818 23.2355 84.0495 23.6633C81.5346 24.6977 79.0265 25.7465 76.5241 26.8096L76.3877 26.8291C76.0284 26.4982 73.8318 21.8648 73.4771 21.0959C77.0232 19.1949 81.1958 17.2284 84.8305 15.4048Z" fill="#F9F5F2"/>
<path d="M50.3084 1.90479C50.7023 2.31734 54.5961 11.9823 55.2021 13.4427C54.4062 13.8136 49.7789 16.2889 49.3719 16.1685L49.1898 15.8327L43.6864 4.78641C45.6669 3.83694 48.2419 2.81425 50.3084 1.90479Z" fill="#F9F5F2"/>
</svg>
