<svg width="31" height="31" viewBox="0 0 31 31" fill="none" xmlns="http://www.w3.org/2000/svg">
<g clip-path="url(#clip0_58_2387)">
<rect x="1" y="1" width="29" height="29" rx="14.5" fill="#FF4B4B"/>
<path fill-rule="evenodd" clip-rule="evenodd" d="M28.2818 -1.69678H2.44533C-0.395943 -1.69678 -1.41007 -1.36024 -2.44446 -0.807045C-3.5676 -0.20638 -4.44906 0.675073 -5.04972 1.79822C-5.60292 2.8326 -5.93945 3.84673 -5.93945 6.688V23.3124C-5.93945 26.1537 -5.60292 27.1678 -5.04972 28.2022C-4.44906 29.3253 -3.5676 30.2068 -2.44446 30.8074C-1.41007 31.3606 -0.395943 31.6972 2.44533 31.6972H28.2818C31.1231 31.6972 32.1372 31.3606 33.1716 30.8074C34.2948 30.2068 35.1762 29.3253 35.7769 28.2022C36.3301 27.1678 36.6666 26.1537 36.6666 23.3124V6.688C36.6666 3.84673 36.3301 2.8326 35.7769 1.79822C35.1762 0.675073 34.2948 -0.20638 33.1716 -0.807045C32.1372 -1.36024 31.1231 -1.69678 28.2818 -1.69678Z" fill="#EEEEEE" stroke="white" stroke-width="2.30303"/>
<path fill-rule="evenodd" clip-rule="evenodd" d="M2.44537 -0.54541H28.2819C30.797 -0.54541 31.7091 -0.283529 32.6286 0.208228C33.5481 0.699985 34.2697 1.42162 34.7615 2.34112C34.8606 2.52637 34.9503 2.71132 35.0305 2.90914H-4.30322C-4.22307 2.71132 -4.13333 2.52637 -4.03426 2.34112C-3.5425 1.42162 -2.82087 0.699985 -1.90136 0.208228C-0.981855 -0.283529 -0.0697958 -0.54541 2.44537 -0.54541Z" fill="#FF4B4B"/>
<path fill-rule="evenodd" clip-rule="evenodd" d="M35.5137 6.36377C35.5147 6.46879 35.5152 6.5768 35.5152 6.68794V9.81831H-4.78784V6.68794C-4.78784 6.5768 -4.78733 6.46879 -4.78631 6.36377H35.5137Z" fill="#FF4B4B"/>
<path fill-rule="evenodd" clip-rule="evenodd" d="M35.5152 13.2729V16.7275H-4.78784L-4.78784 13.2729H35.5152Z" fill="#FF4B4B"/>
<path fill-rule="evenodd" clip-rule="evenodd" d="M35.5152 23.3123C35.5152 23.4234 35.5147 23.5314 35.5137 23.6364H-4.78631C-4.78733 23.5314 -4.78784 23.4234 -4.78784 23.3123V20.1819H35.5152V23.3123Z" fill="#FF4B4B"/>
<path fill-rule="evenodd" clip-rule="evenodd" d="M35.0305 27.0911C34.9503 27.2889 34.8606 27.4738 34.7615 27.6591C34.2697 28.5786 33.5481 29.3002 32.6286 29.792C31.7091 30.2837 30.797 30.5456 28.2819 30.5456H2.44537C-0.0697958 30.5456 -0.981855 30.2837 -1.90136 29.792C-2.82087 29.3002 -3.5425 28.5786 -4.03426 27.6591C-4.13333 27.4738 -4.22307 27.2889 -4.30322 27.0911H35.0305Z" fill="#FF4B4B"/>
<path fill-rule="evenodd" clip-rule="evenodd" d="M2.44542 -0.54541H15.3637V13.2728H-4.78784V6.68785C-4.78784 4.17269 -4.52596 3.26063 -4.0342 2.34112C-3.54245 1.42162 -2.82081 0.699985 -1.90131 0.208228C-0.9818 -0.283529 -0.0697408 -0.54541 2.44542 -0.54541Z" fill="#1CB0F6"/>
<path d="M11.2217 4.98299L10.4873 5.3691C10.2567 5.49034 9.97144 5.40167 9.8502 5.17106C9.80192 5.07924 9.78526 4.97405 9.8028 4.8718L9.94306 4.05401C9.95641 3.97619 9.93061 3.89678 9.87407 3.84167L9.27991 3.26251C9.09335 3.08065 9.08953 2.78199 9.27138 2.59542C9.3438 2.52113 9.43869 2.47278 9.54136 2.45786L10.3625 2.33855C10.4406 2.32719 10.5081 2.27812 10.5431 2.20731L10.9103 1.46327C11.0256 1.22963 11.3085 1.13371 11.5421 1.24901C11.6351 1.29493 11.7104 1.37023 11.7564 1.46327L12.1236 2.20731C12.1585 2.27812 12.2261 2.32719 12.3042 2.33855L13.1253 2.45786C13.3831 2.49533 13.5618 2.73471 13.5243 2.99254C13.5094 3.0952 13.461 3.19009 13.3867 3.26251L12.7926 3.84167C12.736 3.89678 12.7102 3.97619 12.7236 4.05401L12.8639 4.8718C12.9079 5.12858 12.7354 5.37245 12.4787 5.4165C12.3764 5.43403 12.2712 5.41738 12.1794 5.3691L11.445 4.98299C11.3751 4.94625 11.2916 4.94625 11.2217 4.98299Z" fill="white"/>
<path d="M11.2217 10.7408L10.4873 11.1269C10.2567 11.2481 9.97144 11.1595 9.8502 10.9289C9.80192 10.837 9.78526 10.7319 9.8028 10.6296L9.94306 9.81182C9.95641 9.734 9.93061 9.6546 9.87407 9.59948L9.27991 9.02032C9.09335 8.83846 9.08953 8.5398 9.27138 8.35323C9.3438 8.27894 9.43869 8.23059 9.54136 8.21567L10.3625 8.09636C10.4406 8.08501 10.5081 8.03593 10.5431 7.96513L10.9103 7.22108C11.0256 6.98745 11.3085 6.89152 11.5421 7.00683C11.6351 7.05274 11.7104 7.12804 11.7564 7.22108L12.1236 7.96513C12.1585 8.03593 12.2261 8.08501 12.3042 8.09636L13.1253 8.21567C13.3831 8.25314 13.5618 8.49252 13.5243 8.75035C13.5094 8.85302 13.461 8.9479 13.3867 9.02032L12.7926 9.59948C12.736 9.6546 12.7102 9.734 12.7236 9.81182L12.8639 10.6296C12.9079 10.8864 12.7354 11.1303 12.4787 11.1743C12.3764 11.1918 12.2712 11.1752 12.1794 11.1269L11.445 10.7408C11.3751 10.7041 11.2916 10.7041 11.2217 10.7408Z" fill="white"/>
<path d="M5.46413 4.98299L4.72971 5.3691C4.4991 5.49034 4.21387 5.40167 4.09263 5.17106C4.04436 5.07924 4.0277 4.97405 4.04523 4.8718L4.1855 4.05401C4.19884 3.97619 4.17304 3.89678 4.1165 3.84167L3.52234 3.26251C3.33578 3.08065 3.33196 2.78199 3.51382 2.59542C3.58623 2.52113 3.68112 2.47278 3.78379 2.45786L4.60489 2.33855C4.68303 2.32719 4.75058 2.27812 4.78552 2.20731L5.15273 1.46327C5.26804 1.22963 5.55091 1.13371 5.78454 1.24901C5.87757 1.29493 5.95287 1.37023 5.99879 1.46327L6.366 2.20731C6.40094 2.27812 6.46849 2.32719 6.54663 2.33855L7.36773 2.45786C7.62556 2.49533 7.8042 2.73471 7.76674 2.99254C7.75182 3.0952 7.70347 3.19009 7.62918 3.26251L7.03502 3.84167C6.97848 3.89678 6.95268 3.97619 6.96603 4.05401L7.10629 4.8718C7.15033 5.12858 6.97787 5.37245 6.72108 5.4165C6.61883 5.43403 6.51364 5.41738 6.42182 5.3691L5.6874 4.98299C5.61751 4.94625 5.53401 4.94625 5.46413 4.98299Z" fill="white"/>
<path d="M5.46413 10.7408L4.72971 11.1269C4.4991 11.2481 4.21387 11.1595 4.09263 10.9289C4.04436 10.837 4.0277 10.7319 4.04523 10.6296L4.1855 9.81182C4.19884 9.734 4.17304 9.6546 4.1165 9.59948L3.52234 9.02032C3.33578 8.83846 3.33196 8.5398 3.51382 8.35323C3.58623 8.27894 3.68112 8.23059 3.78379 8.21567L4.60489 8.09636C4.68303 8.08501 4.75058 8.03593 4.78552 7.96513L5.15273 7.22108C5.26804 6.98745 5.55091 6.89152 5.78454 7.00683C5.87757 7.05274 5.95287 7.12804 5.99879 7.22108L6.366 7.96513C6.40094 8.03593 6.46849 8.08501 6.54663 8.09636L7.36773 8.21567C7.62556 8.25314 7.8042 8.49252 7.76674 8.75035C7.75182 8.85302 7.70347 8.9479 7.62918 9.02032L7.03502 9.59948C6.97848 9.6546 6.95268 9.734 6.96603 9.81182L7.10629 10.6296C7.15033 10.8864 6.97787 11.1303 6.72108 11.1743C6.61883 11.1918 6.51364 11.1752 6.42182 11.1269L5.6874 10.7408C5.61751 10.7041 5.53401 10.7041 5.46413 10.7408Z" fill="white"/>
<path d="M-0.293442 4.98299L-1.02786 5.3691C-1.25847 5.49034 -1.5437 5.40167 -1.66494 5.17106C-1.71321 5.07924 -1.72987 4.97405 -1.71233 4.8718L-1.57207 4.05401C-1.55873 3.97619 -1.58453 3.89678 -1.64107 3.84167L-2.23523 3.26251C-2.42179 3.08065 -2.42561 2.78199 -2.24375 2.59542C-2.17134 2.52113 -2.07645 2.47278 -1.97378 2.45786L-1.15267 2.33855C-1.07454 2.32719 -1.00699 2.27812 -0.972045 2.20731L-0.604835 1.46327C-0.489531 1.22963 -0.206663 1.13371 0.0269688 1.24901C0.120002 1.29493 0.195305 1.37023 0.24122 1.46327L0.608429 2.20731C0.643373 2.27812 0.710921 2.32719 0.789058 2.33855L1.61016 2.45786C1.86799 2.49533 2.04663 2.73471 2.00917 2.99254C1.99425 3.0952 1.9459 3.19009 1.87161 3.26251L1.27745 3.84167C1.22091 3.89678 1.19511 3.97619 1.20846 4.05401L1.34872 4.8718C1.39276 5.12858 1.2203 5.37245 0.963513 5.4165C0.861259 5.43403 0.756076 5.41738 0.664247 5.3691L-0.0701726 4.98299C-0.140061 4.94625 -0.223554 4.94625 -0.293442 4.98299Z" fill="white"/>
<path d="M-0.293442 10.7408L-1.02786 11.1269C-1.25847 11.2481 -1.5437 11.1595 -1.66494 10.9289C-1.71321 10.837 -1.72987 10.7319 -1.71233 10.6296L-1.57207 9.81182C-1.55873 9.734 -1.58453 9.6546 -1.64107 9.59948L-2.23523 9.02032C-2.42179 8.83846 -2.42561 8.5398 -2.24375 8.35323C-2.17134 8.27894 -2.07645 8.23059 -1.97378 8.21567L-1.15267 8.09636C-1.07454 8.08501 -1.00699 8.03593 -0.972045 7.96513L-0.604835 7.22108C-0.489531 6.98745 -0.206663 6.89152 0.0269688 7.00683C0.120002 7.05274 0.195305 7.12804 0.24122 7.22108L0.608429 7.96513C0.643373 8.03593 0.710921 8.08501 0.789058 8.09636L1.61016 8.21567C1.86799 8.25314 2.04663 8.49252 2.00917 8.75035C1.99425 8.85302 1.9459 8.9479 1.87161 9.02032L1.27745 9.59948C1.22091 9.6546 1.19511 9.734 1.20846 9.81182L1.34872 10.6296C1.39276 10.8864 1.2203 11.1303 0.963513 11.1743C0.861259 11.1918 0.756076 11.1752 0.664247 11.1269L-0.0701726 10.7408C-0.140061 10.7041 -0.223554 10.7041 -0.293442 10.7408Z" fill="white"/>
</g>
<rect x="0.5" y="0.5" width="30" height="30" rx="15" stroke="#2A2A2A"/>
<defs>
<clipPath id="clip0_58_2387">
<rect x="1" y="1" width="29" height="29" rx="14.5" fill="white"/>
</clipPath>
</defs>
</svg>
